<?xml version="1.0" encoding="UTF-8"?> <svg xmlns="http://www.w3.org/2000/svg" id="Capa_1" data-name="Capa 1" width="839.72" height="289.39" viewBox="0 0 839.72 289.39"><defs><style>.cls-1{fill:#2b2c29;}</style></defs><title>logo sal y salsa</title><path class="cls-1" d="M396.32,224.31a58.53,58.53,0,0,1,10.11,1c1.82,0,2.63-2,5.05-2s3,2.83,3.24,3.83c1.21,7.08,3.84,20.42,3.84,21.23,0,2.63-3,3.23-4.65,3.23-4.25,0-3.64-5.86-6.47-9.9-2.63-3.64-9.91-7.88-16.57-7.88-6.88,0-12.74,4.24-12.74,10.71,0,2.83,1,10.31,16,14.55,10.31,2.83,19.81,3.44,27.29,12.13a24.74,24.74,0,0,1,6.06,16c0,12.94-10.71,27.29-30.72,27.29-9.3,0-22-3.23-27.9-10.11-2-2.22-2.43-3.84-2.43-6.87,0-5.46-.2-9.3-.2-12.13,0-5.25.61-6.27,3.64-6.27,5.06,0,1.82,6.88,4.65,12.54,2,4.24,11.32,11.93,23,11.93,9.1,0,16.38-5.46,16.38-13.55,0-13.34-17.79-15.36-24.26-17.18-16.37-4.65-22.44-14.76-22.44-24.66C367.21,236,378.13,224.31,396.32,224.31Z" transform="translate(-28.78 -25.27)"></path><path class="cls-1" d="M504.24,224.3c7.55,0,26.81,2.38,28.8,21.84.2,2.39.4,4.77.4,7.15v39.13c0,7.75,4.76,8.74,6.75,8.74,6.16,0,5.76-6.55,8.74-6.55.8,0,1.79.79,1.79,2.58,0,4.57-5,15.69-15.3,15.69-8.93,0-13.7-7.94-14.1-8.14-.2,0-.2-.2-.4-.2-1,0-.39,1-5.36,4.37a34.46,34.46,0,0,1-18.47,5.56c-13.71,0-22.64-10.13-22.64-22.25V292a22.54,22.54,0,0,1,8.34-17.67c10.72-8.54,34.56-9.34,35-9.54,1.39-.39,1.59-1.38,1.59-2.78v-7.15c0-6.35-.8-11.32-4.77-15.89a15.9,15.9,0,0,0-11.52-5.36c-11.32,0-16.69,12.51-17.08,13.31a5.09,5.09,0,0,1-4.37,2.18c-3.78,0-8-2.58-8-7.15C473.65,234.82,487.75,224.3,504.24,224.3Zm14.1,71.1a7.15,7.15,0,0,0,1.19-4.57V277.92c0-4.76-.19-5.76-2-5.76-3.58,0-17.09,1-23.64,7.15A13.72,13.72,0,0,0,489.15,290c0,3.18,1,8.14,4.17,10.92,2.38,2.19,5.95,2.59,8.54,2.59A21.23,21.23,0,0,0,518.34,295.4Z" transform="translate(-28.78 -25.27)"></path><path class="cls-1" d="M634.53,314.66a169.33,169.33,0,0,0-18.67-1.19c-9.54,0-17.28,1-17.88,1-2.58,0-2.78-2.19-2.78-3.58v-.59c0-3.78,1.39-3.58,8.14-4.37,5.17-.6,5.57-3.58,5.57-7.55V197.27c0-3-1.2-3-4.57-5-8-4.77-10.53-5.57-10.53-7.75v-.2c0-1.59.4-1.19,24.43-13.71a4.32,4.32,0,0,1,2.38-.79c2.39,0,2.78,2,2.78,3.77V299.37c0,6.35,2.19,5.95,10.13,7.34,2.39.4,3.38,1.39,3.38,4C636.91,313.07,636.51,314.66,634.53,314.66Z" transform="translate(-28.78 -25.27)"></path><path class="cls-1" d="M719.73,224.31a58.49,58.49,0,0,1,10.1,1c1.82,0,2.63-2,5.06-2s3,2.83,3.23,3.83c1.21,7.08,3.84,20.42,3.84,21.23,0,2.63-3,3.23-4.65,3.23-4.24,0-3.64-5.86-6.47-9.9-2.62-3.64-9.9-7.88-16.57-7.88-6.88,0-12.74,4.24-12.74,10.71,0,2.83,1,10.31,16,14.55,10.31,2.83,19.81,3.44,27.29,12.13a24.71,24.71,0,0,1,6.07,16c0,12.94-10.72,27.29-30.73,27.29-9.3,0-22-3.23-27.9-10.11-2-2.22-2.42-3.84-2.42-6.87,0-5.46-.2-9.3-.2-12.13,0-5.25.6-6.27,3.63-6.27,5.06,0,1.82,6.88,4.65,12.54,2,4.24,11.32,11.93,23.05,11.93,9.1,0,16.37-5.46,16.37-13.55,0-13.34-17.79-15.36-24.25-17.18-16.38-4.65-22.44-14.76-22.44-24.66C690.62,236,701.53,224.31,719.73,224.31Z" transform="translate(-28.78 -25.27)"></path><path class="cls-1" d="M822,224.33c7.55,0,26.82,2.38,28.81,21.84.19,2.39.39,4.77.39,7.15v39.13c0,7.75,4.77,8.75,6.76,8.75,6.15,0,5.76-6.56,8.73-6.56.8,0,1.79.79,1.79,2.58,0,4.57-5,15.69-15.29,15.69-8.94,0-13.71-7.94-14.1-8.14-.2,0-.2-.2-.4-.2-1,0-.4,1-5.36,4.37a34.49,34.49,0,0,1-18.48,5.56c-13.7,0-22.64-10.13-22.64-22.24v-.2a22.58,22.58,0,0,1,8.34-17.68c10.73-8.54,34.56-9.34,35-9.53,1.39-.4,1.59-1.39,1.59-2.79v-7.14c0-6.36-.8-11.33-4.77-15.9a15.86,15.86,0,0,0-11.52-5.36c-11.32,0-16.68,12.51-17.08,13.31a5.06,5.06,0,0,1-4.37,2.18c-3.77,0-7.94-2.58-7.94-7.15C791.43,234.85,805.53,224.33,822,224.33Zm14.11,71.1a7.2,7.2,0,0,0,1.19-4.56V278c0-4.77-.2-5.77-2-5.77-3.57,0-17.08,1-23.63,7.15a13.71,13.71,0,0,0-4.77,10.73c0,3.18,1,8.15,4.17,10.93,2.38,2.18,6,2.58,8.54,2.58A21.28,21.28,0,0,0,836.12,295.43Z" transform="translate(-28.78 -25.27)"></path><path class="cls-1" d="M58.86,79.84a59,59,0,0,1,10.09,1c1.82,0,2.62-2,5-2s3,2.83,3.23,3.84c1.21,7.07,3.83,20.39,3.83,21.19,0,2.63-3,3.24-4.64,3.24-4.24,0-3.64-5.86-6.46-9.9-2.63-3.63-9.89-7.87-16.55-7.87-6.87,0-12.72,4.24-12.72,10.7,0,2.82,1,10.3,16,14.53,10.29,2.83,19.78,3.44,27.25,12.12a24.62,24.62,0,0,1,6,15.94c0,12.92-10.69,27.26-30.68,27.26-9.29,0-22-3.23-27.86-10.1-2-2.22-2.42-3.83-2.42-6.86,0-5.45-.2-9.29-.2-12.11,0-5.25.6-6.26,3.63-6.26,5.05,0,1.82,6.86,4.64,12.51,2,4.25,11.31,11.92,23,11.92,9.08,0,16.35-5.45,16.35-13.53,0-13.32-17.77-15.34-24.23-17.16-16.35-4.64-22.4-14.74-22.4-24.63C29.79,91.55,40.69,79.84,58.86,79.84Z" transform="translate(-28.78 -25.27)"></path><path class="cls-1" d="M166.94,79.94c7.53,0,26.74,2.37,28.72,21.79.2,2.37.4,4.75.4,7.13v39c0,7.72,4.75,8.72,6.73,8.72,6.14,0,5.75-6.54,8.72-6.54.79,0,1.78.79,1.78,2.57,0,4.56-4.95,15.65-15.25,15.65-8.91,0-13.67-7.92-14.06-8.12-.2,0-.2-.2-.4-.2-1,0-.4,1-5.35,4.36a34.36,34.36,0,0,1-18.42,5.54c-13.67,0-22.58-10.1-22.58-22.18v-.2a22.49,22.49,0,0,1,8.32-17.63c10.69-8.51,34.46-9.31,34.86-9.5,1.39-.4,1.59-1.39,1.59-2.78v-7.13c0-6.34-.8-11.29-4.76-15.85a15.85,15.85,0,0,0-11.49-5.34c-11.29,0-16.64,12.48-17,13.27a5.08,5.08,0,0,1-4.36,2.18c-3.76,0-7.92-2.58-7.92-7.13C136.44,90.44,150.5,79.94,166.94,79.94ZM181,150.85a7.13,7.13,0,0,0,1.19-4.56V133.42c0-4.75-.19-5.75-2-5.75-3.56,0-17,1-23.57,7.13a13.7,13.7,0,0,0-4.75,10.7c0,3.17,1,8.12,4.16,10.9,2.37,2.18,5.94,2.57,8.51,2.57A21.2,21.2,0,0,0,181,150.85Z" transform="translate(-28.78 -25.27)"></path><path class="cls-1" d="M297.1,170.07a169.09,169.09,0,0,0-18.67-1.19c-9.53,0-17.28,1-17.88,1-2.58,0-2.78-2.19-2.78-3.58v-.59c0-3.77,1.39-3.58,8.15-4.37,5.16-.6,5.56-3.58,5.56-7.55V52.68c0-3-1.19-3-4.57-5C259,43,256.38,42.15,256.38,40v-.2c0-1.59.4-1.19,24.43-13.71a4.33,4.33,0,0,1,2.39-.79c2.38,0,2.78,2,2.78,3.77V154.78c0,6.35,2.18,5.95,10.13,7.34,2.38.4,3.38,1.39,3.38,4C299.49,168.48,299.09,170.07,297.1,170.07Z" transform="translate(-28.78 -25.27)"></path><path class="cls-1" d="M369.62,102.48c0-11,10-21,21.37-21,4.39,0,13.06,1.59,13.06,7.45a5.62,5.62,0,0,1-5.49,5.49c-5,0-5.25-6.1-10.63-6.1-5.12,0-12.94,5.37-12.94,14.16,0,5,3.05,10.13,4.76,10.13,1,0,6.11-3.29,13.43-3.29,6,0,10.63,2.68,10.63,6.84s-5,7-11.24,7h-.12c-6.71,0-10.86-2.93-11.72-2.93s-1.46,1.35-1.59,1.47a26,26,0,0,0-3.29,12.7c0,10.38,7.08,25,30.52,26.12h2.2c19.78,0,25.52-12.69,25.52-21.12,0-8.18-5-14.65-12.7-14.65-7.21,0-13.19,5.74-13.19,11.72,0,3.91,2.81,7.57,7.08,7.57,1.59,0,4.4-.85,4.4-2.07s-2.69-.49-4.52-2.93a5,5,0,0,1-.85-2.69,4.54,4.54,0,0,1,4.76-4.39,7.16,7.16,0,0,1,7.08,7.08c0,4.76-4.52,9.27-10.5,9.27a12,12,0,0,1-11.84-12.32c0-6.48,4.51-12.58,11.84-16.25,10.26-5.12,21.73-4,30.15-7.69,5.13-2.31,10.5-7.08,10.5-14.52,0-7.7-5.73-13.07-11.59-13.07-1.1,0-3.67.25-3.67,1.1,0,.61,2,1.47,2,4.27a5,5,0,0,1-5,5,5.74,5.74,0,0,1-5.49-6c0-5.25,5.12-9,10.74-9,8.67,0,18.07,8.31,18.07,20.39,0,13.19-11.84,23.69-25.51,23.93-1,0-1.84,0-1.84,1s4.15,5.25,4.15,13.67V139c0,16.35-16.36,30.89-36.38,30.89-20.39,0-35.53-15.26-35.53-32.73,0-12.81,7.82-19.77,8.3-20.63a2.12,2.12,0,0,0,.25-.85v-.12C374.75,114.2,369.62,110.54,369.62,102.48Zm29.91,13.92c0-1.22-.85-3.05-5.25-3.05-6.1,0-10.25,1.71-10.25,2.81a1.05,1.05,0,0,0,.36.73c2.93,2.19,6,2.32,10,2.32C396.85,119.21,399.53,118.72,399.53,116.4Z" transform="translate(-28.78 -25.27)"></path></svg> 